<mxfile host="65bd71144e">
    <diagram id="XCvFVrADZzk95iWrfbFi" name="Page-1">
        <mxGraphModel dx="564" dy="1641" grid="1" gridSize="10" guides="1" tooltips="1" connect="1" arrows="1" fold="1" page="1" pageScale="1" pageWidth="827" pageHeight="1169" math="0" shadow="0">
            <root>
                <mxCell id="0"/>
                <mxCell id="1" parent="0"/>
                <mxCell id="4" value="" style="edgeStyle=none;html=1;" edge="1" parent="1" source="2" target="3">
                    <mxGeometry relative="1" as="geometry"/>
                </mxCell>
                <mxCell id="2" value="Inicio" style="ellipse;whiteSpace=wrap;html=1;fontSize=22;fontFamily=Comic Sans MS;" vertex="1" parent="1">
                    <mxGeometry x="210" y="-510" width="150" height="80" as="geometry"/>
                </mxCell>
                <mxCell id="6" value="" style="edgeStyle=none;html=1;" edge="1" parent="1" source="3" target="5">
                    <mxGeometry relative="1" as="geometry"/>
                </mxCell>
                <mxCell id="3" value="C" style="shape=parallelogram;perimeter=parallelogramPerimeter;whiteSpace=wrap;html=1;fixedSize=1;fontSize=25;fontFamily=Garamond;" vertex="1" parent="1">
                    <mxGeometry x="225" y="-340" width="120" height="60" as="geometry"/>
                </mxCell>
                <mxCell id="8" value="" style="edgeStyle=none;html=1;" edge="1" parent="1" source="5" target="7">
                    <mxGeometry relative="1" as="geometry"/>
                </mxCell>
                <mxCell id="5" value="k=c+273.15&lt;br style=&quot;font-size: 16px;&quot;&gt;f=1.8c+32" style="whiteSpace=wrap;html=1;fontSize=16;fontFamily=Comic Sans MS;" vertex="1" parent="1">
                    <mxGeometry x="225" y="-200" width="120" height="60" as="geometry"/>
                </mxCell>
                <mxCell id="10" value="" style="edgeStyle=none;html=1;" edge="1" parent="1" source="7" target="9">
                    <mxGeometry relative="1" as="geometry"/>
                </mxCell>
                <mxCell id="7" value="f, k" style="shape=document;whiteSpace=wrap;html=1;boundedLbl=1;fontSize=23;fontFamily=Comic Sans MS;" vertex="1" parent="1">
                    <mxGeometry x="225" y="-70" width="120" height="80" as="geometry"/>
                </mxCell>
                <mxCell id="9" value="Fin" style="ellipse;whiteSpace=wrap;html=1;fontSize=23;fontFamily=Comic Sans MS;" vertex="1" parent="1">
                    <mxGeometry x="225" y="100" width="120" height="60" as="geometry"/>
                </mxCell>
            </root>
        </mxGraphModel>
    </diagram>
</mxfile>